<svg xmlns="http://www.w3.org/2000/svg" viewBox="0 0 780 520">
  <defs>
    <linearGradient id="sky" x1="0" y1="0" x2="1" y2="1">
      <stop stop-color="#f06b35"/>
      <stop offset=".58" stop-color="#ef8a3f"/>
      <stop offset="1" stop-color="#f7bd67"/>
    </linearGradient>
    <linearGradient id="cloth" x1="0" y1="0" x2="1" y2="1">
      <stop stop-color="#fff7d8"/>
      <stop offset="1" stop-color="#ffd171"/>
    </linearGradient>
    <linearGradient id="crate" x1="0" y1="0" x2="0" y2="1">
      <stop stop-color="#ad6332"/>
      <stop offset="1" stop-color="#7d3f22"/>
    </linearGradient>
  </defs>
  <rect width="780" height="520" fill="url(#sky)"/>
  <circle cx="106" cy="82" r="58" fill="#ffe7a4" opacity=".85"/>
  <circle cx="654" cy="118" r="96" fill="#ffd66c" opacity=".42"/>
  <path d="M0 350c92-36 158-20 236 6 110 37 214 21 317-14 89-30 153-27 227 7v171H0z" fill="#f8e3c1" opacity=".78"/>
  <path d="M0 389c126-28 218-10 317 15 122 31 270 4 463-45v161H0z" fill="#f7f1ea" opacity=".92"/>
  <g transform="translate(76 178)">
    <path d="M0 0h204l42 84H-36z" fill="url(#cloth)"/>
    <rect x="-18" y="83" width="246" height="128" rx="18" fill="#fff8ef"/>
    <rect x="12" y="107" width="80" height="62" rx="14" fill="url(#crate)"/>
    <rect x="114" y="107" width="80" height="62" rx="14" fill="url(#crate)"/>
    <g fill="#f05d3d">
      <circle cx="42" cy="121" r="14"/><circle cx="62" cy="137" r="17"/><circle cx="31" cy="147" r="15"/>
    </g>
    <g fill="#f6d44a">
      <circle cx="142" cy="125" r="14"/><circle cx="164" cy="141" r="17"/><circle cx="134" cy="149" r="15"/>
    </g>
    <rect x="28" y="185" width="160" height="10" rx="5" fill="#efdfd3"/>
  </g>
  <g transform="translate(354 148)">
    <rect x="0" y="90" width="300" height="162" rx="24" fill="#fff9ef"/>
    <path d="M28 30h244l48 76H-20z" fill="#d94b34"/>
    <path d="M76 30h48l-28 76H48zM176 30h48l28 76h-48z" fill="#ffefe0" opacity=".9"/>
    <rect x="40" y="124" width="94" height="78" rx="16" fill="#f4a340"/>
    <rect x="166" y="124" width="94" height="78" rx="16" fill="#73b64c"/>
    <circle cx="70" cy="150" r="22" fill="#f05d3d"/>
    <circle cx="102" cy="165" r="25" fill="#f6d44a"/>
    <circle cx="198" cy="151" r="23" fill="#287c4d"/>
    <circle cx="232" cy="168" r="25" fill="#9ed05b"/>
    <rect x="68" y="216" width="164" height="12" rx="6" fill="#eadbcf"/>
  </g>
  <g fill="#fff" opacity=".72">
    <circle cx="166" cy="60" r="5"/><circle cx="188" cy="72" r="4"/><circle cx="604" cy="64" r="6"/><circle cx="630" cy="84" r="4"/>
  </g>
</svg>
